<?xml version="1.0" encoding="utf-8"?>
<!-- Generator: Adobe Illustrator 17.1.0, SVG Export Plug-In . SVG Version: 6.00 Build 0)  -->
<!DOCTYPE svg PUBLIC "-//W3C//DTD SVG 1.1//EN" "http://www.w3.org/Graphics/SVG/1.1/DTD/svg11.dtd">
<svg version="1.1" id="Layer_1" xmlns="http://www.w3.org/2000/svg" xmlns:xlink="http://www.w3.org/1999/xlink" x="0px" y="0px"
	 viewBox="0 300.4 1000 399.1" enable-background="new 0 300.4 1000 399.1" xml:space="preserve">
<g opacity="0.5">
	<path fill="#FEE6E6" d="M941.7,339.6c-142.3,38.7-302.2,45-457.9,45.9C328,386.5,170.2,383,18.2,403.9"/>
	<g>
		<path fill="#FEE9E9" d="M923,393.4c-0.9,0-2-0.1-2.9-0.1c0.8-0.4,1.9-0.7,3.1-1.1c1.2-0.3,2.6-0.5,4.1-0.9
			c-15,0.5-31.7,3.8-47.6,7.8c-4,1-7.9,2.1-11.7,3.2c-3.8,1.1-7.6,2.2-11.2,3.3c-3.6,1.1-7.2,2.4-10.5,3.6s-6.5,2.5-9.5,3.6
			c-8.8,1.1-16.5,4-17,6.4c-0.5,2.4,6.3,3.4,15.3,2.3c2,0,4.3-0.2,5.9,0c6.7,0.7,14.1,0.9,22,0.8c2,0,4-0.1,6.1-0.1
			c1,0,2-0.1,3.1-0.1c1-0.1,2.1-0.1,3.2-0.2c4.2-0.3,8.6-0.6,13-1.1c-3.4,0-7.1,0-10.6,0c5.1-0.5,10.2-0.9,15.8-2
			c-0.7-0.3-1.5-0.5-2.2-0.9c2.2-0.1,4.5-0.2,7-0.4c1.2-0.1,2.4-0.2,3.6-0.4c1.2-0.2,2.4-0.3,3.6-0.6c4.9-0.8,9.9-2,14.6-3.2
			c2.4-0.7,4.7-1.4,6.9-2.1c1.1-0.3,2.2-0.7,3.2-1.1c1.1-0.4,2.1-0.8,3.1-1.3c4-1.7,7.5-3.5,10.2-5.3c10.8-7.3,5-12-12.7-10.7
			c0,0-2,0.1-3.9,0.3c-1,0.1-2,0.1-2.7,0.1C923.5,393.4,923,393.4,923,393.4z"/>
		<path fill="#FEE9E9" d="M888.7,387.3c2.6-0.1,5.2-0.2,7.7-0.4c2.6-0.1,5.1-0.3,7.6-0.5c5.1-0.3,10.1-0.6,15.1-0.9l2.1,0.3
			l-1.5-3.3l-0.1,0.3c-4.2,2.5-9.9,4.9-16.4,7.1c-1.6,0.5-3.2,1.1-4.9,1.7c-0.8,0.3-1.7,0.5-2.6,0.8s-1.7,0.5-2.6,0.7
			c-3.4,0.9-7,1.9-10.3,2.8l-4.9,1.5c-2.3,0.9-3.7,1.9-4.1,2.8c-0.8,1.9,3.8,2.6,10.3,1.6l7.6-1.1c2.3-0.2,4.8-0.4,7.4-0.8
			c2.6-0.4,5.3-0.9,8-1.4c5.5-1,11.1-2.3,16.3-3.7c2.6-0.7,5.2-1.6,7.6-2.4c2.4-0.9,4.7-1.8,6.8-2.8c4.2-1.9,7.6-3.9,9.7-6
			c1.9-1.9-0.5-3.1-1.4-4.5c0.1-2.4-7.2-2.7-16.1-0.5c-2.2,0.5-4.4,1.1-6.3,1.8c-2,0.7-3.7,1.4-5.2,2c-3,1.4-4.8,2.9-4.9,4.1
			c-1.6,0.2-3.2,0.4-4.7,0.5c1.1-0.5,2.3-1.1,3.4-1.6c-2.1,2.6-10.2,4.9-16.1,7.3l-9.1,2.4l6.3,4.3c0,0,1.1-0.4,2.4-0.8
			c1.1-0.4,2.3-0.9,2.3-0.9c-0.4-0.1-1.2-0.3-1.1-0.3c8.8-3.5,17.1-6.9,26.8-10.1c0,0,0.7-0.3,1.9-0.8c1.1-0.5,2.6-1.1,4.1-1.8
			c3-1.3,6-2.6,6-2.6c3.1-1.9,2.4-3.3-1.5-3.2l-5.8,0.3c0.9,0,1.8,0,2.6,0.1c-1.6,0.3-3.2,0.5-4.9,0.8c-1.6,0.3-3.3,0.5-4.9,0.8
			c-3.3,0.5-6.6,0.9-9.9,1.5c-3.3,0.5-6.6,0.9-9.9,1.4c-1.6,0.2-3.3,0.5-4.9,0.7c-0.8,0.1-1.6,0.2-2.4,0.3c-0.8,0.1-1.6,0.1-2.4,0.3
			c-2,0.1-4.5,0.9-5.3,1.6C885.6,387.1,886.5,387.5,888.7,387.3z"/>
		<g>
			<path fill="#FEE9E9" d="M933.4,376.3c2.2-0.1,4.3-0.2,7.2-1c0.7-0.4,0.9-0.6,1.1-0.7c-1.1,0-2.7,0.1-4.3,0.1
				C934.4,374.7,933,375.6,933.4,376.3z"/>
			<path fill="#FEE9E9" d="M941.7,374.5c1.1,0,1.8-0.1,1.8-0.1c-0.4-0.1-0.9-0.1-1.3-0.2c-0.3,0.1-0.3,0.1-0.3,0.1
				S941.9,374.4,941.7,374.5z"/>
			<path fill="#FEE9E9" d="M384.9,429.7c-39-1.1-78-1.7-116.8-1.5c-1.3,0-2.4,0.3-2.4,0.6c-0.1,0.3,0.9,0.6,2.2,0.5
				c38.8-0.1,77.7,0.5,116.6,1.6c1.3,0,2.4-0.3,2.6-0.5C387,430.1,386.1,429.8,384.9,429.7z"/>
			<path fill="#FEE9E9" d="M93.2,405.7c0.9-0.3,0.8-0.7-0.1-0.9c-0.8-0.1-2.3,0-3.2,0.3c-0.7,0.3-0.7,0.7,0.1,0.8
				C91,406.2,92.4,406,93.2,405.7z"/>
			<path fill="#FEE9E9" d="M99.3,378.4c2.7-0.5,5.4-1,8-1.5c2.6-0.5,5-1.1,7.3-1.7c0.9-0.2,1.8-0.3,2.6-0.1
				c-0.3-0.5,0.7-1.1,2.6-1.5c39-7.5,81.2-11.2,122.7-14.7c0.3-0.5,0.8-0.9,1.8-1.4c2.8-1.5,8.6-2.3,14.6-2.2l4.5,0.3
				c4.6,0.1,9.1,0.2,13.7,0.3c4.5,0.1,9.1,0.2,13.6,0.3c9.1,0.3,18.2,0.5,27.2,0.9c3.7-0.7,8-1.1,12.6-1.3
				c7.8-0.9,15.7-1.8,23.5-2.6c7.9-0.8,15.8-1.6,23.8-2.2c-1-0.4-1.6-0.8-1.6-1.4c0.3-1.2,4-2.1,8.3-2c2.2,0,4.4-0.1,6.5-0.1
				c-6.3-0.3-12.6-0.5-18.8-0.9c-0.9,0-1.8-0.1-2.5-0.2c-6.9,0-13.8,0.1-20.9,0.2c-30.9,0.7-60.8,2.3-90.3,4.9
				c-29.5,2.6-58.5,5.8-87.4,9.9c-0.9,0.2-2.4,0.3-3.3,0.1c-0.6-0.3-0.5-0.7,0.5-0.9c36.2-7.8,67.7-16.5,108.9-21.1
				c49-5.4,97.4-9.3,147.1-12.4c13-0.1,25.8-0.2,38.4-0.6c6.3-0.2,12.6-0.4,18.8-0.6c6.3-0.3,12.5-0.5,18.7-0.8
				c12.5-0.5,24.9-1.4,37.5-2.1c6.3-0.3,12.6-0.8,19-1.2c6.4-0.4,12.8-0.8,19.4-1.3c35.2-2.4,69.1-4.7,102.6-7.4
				c33.5-2.8,66.6-6,99.8-10.4c3.1-0.5,6.1-0.9,9.2-1.3c1.5-0.1,3-0.3,4.5-0.4c1.5-0.1,2.9-0.2,4.4-0.3c5.7-0.4,11.1-0.5,15.8-0.2
				c2.4,0.1,4.6,0.4,6.6,0.7c1,0.1,2,0.3,2.9,0.5c0.9,0.2,1.8,0.4,2.6,0.6c3.2,0.9,5.5,2.1,6.5,3.7c1.3,1.9,0.7,4.1-1.4,6.3
				c-1.1,1.1-2.5,2.3-4.3,3.4c-1.8,1.1-4,2.2-6.5,3.2c2.1-0.3,4.1-0.5,6.1-0.8l9.8-0.9c4.7-0.4,9-0.5,12.8-0.3
				c2,0.1,3.7,0.3,5.4,0.5c1.6,0.2,3.2,0.5,4.5,0.8l7.3,1.6c5,1.8,11.5,3.2,17.7,4.5c6.2,1.2,12.3,2.6,16.6,4.5l-1.1,2.5l1.9,0.2
				c6.1,0.3,10.6,1.4,12.4,3.2l0.1,2.7c-0.5,3.2-2.8,6.6-7,10.3c0.4,1.1,0.1,2.2-0.9,3.5c4.7,1.8,7.2,4.1,4.7,7.8
				c2.6,0.2,2.5,1.4-0.3,2.7c-0.9,0.5-2.2,0.9-3.4,1.2l0,0c1.5,0.3,2,0.5,4,0.8c2.5-0.3,4-0.5,4-0.5c6.7-1,6.6-1.1,12.4-2.1
				c5.1-0.3,8.4,0.1,8.4,0.1c6.5,3.2,6.6,3.2,6.3,5.4c-0.3,0.3-0.5,0.5-0.9,0.8c4.5-0.5,4.9-0.5,6.1-0.6c1.4,0.1,2.3,0.2,2.3,0.2
				c0.5,1,0.5,1,1.4,1.2c0.3,0.3,0.4,0.7,0.4,0.7c-2.1,1.8-2.1,1.8-2.1,2.2c-0.5,0.5-1.2,0.9-1.2,0.9c-2.8,1.1-3.8,1.6-4.3,1.7
				c-6.8-1.1-6.8-1.1-6.8-1.1c-1.1,1.3-1.1,1.3-1.1,1.3c-1.8-0.9-1.8-0.9-1.8-0.9c1.1,0.9,1.1,0.9,1.1,0.9c-3.2,0.1-3.2,0.1-3.2,0.1
				c3.8,0.1,3.8,0.1,3.8,0.1c-7.4,1.4-7.4,1.4-10.3,2.2c-1.6,0.3-3,0.7-4,0.9c-1.1,0.3-1.8,0.5-2,0.6c0.3,0.3,0.4,0.5,0.4,0.5
				c-8,1.4-8,1.4-15.7,2.6c-0.7-0.1-1.4-0.2-2-0.3c-0.7,0.5-2.1,1-3.6,1.3c-1.4,0.2-2.7,0.5-4.1,0.7c-0.3,0.1-0.5,0.2-0.8,0.3
				c0,0.1,0,0.1,0,0.1c-1.4,0.5-2.2,0.8-3.3,1.2c-0.7,0.3-0.7,0.3-0.7,0.3s0,0-0.1,0c-2.3,0.9-5.5,2.1-14.2,5.3
				c-2.4,0.3-4.7,0.6-6.8,0.8c0.7,0.1,1.4,0.1,2,0.1c1.4,0.1,0.4,1.4,1.1,1.4c8.6-0.6,17.7-1.6,26.8-2.8c9.1-1.4,18.4-2.9,27.6-4.5
				c3.2-0.9,6.4-1.1,7.1-0.4c0.6,0.7-1.5,2.1-4.8,3c-2.2,0.9-4.5,1.8-6.8,2.6c-2.3,0.8-4.7,1.6-7,2.4c-4.7,1.6-9.6,3.1-14.6,4.6
				c-5,1.4-10.1,2.6-15.2,3.8c-5.1,1.1-10.3,2.3-15.5,3.2c-5.2,0.9-10.5,1.7-15.7,2.4c-2.6,0.3-5.2,0.7-7.8,1
				c-2.6,0.3-5.2,0.7-7.8,0.9c-5.2,0.5-10.3,0.9-15.3,1.1c-2.5,0.1-5,0.3-7.5,0.4c-1.2,0.1-2.5,0.1-3.7,0.1c-1.2,0-2.4,0.1-3.6,0.1
				c-5.1,0.4-10.1,0.8-15.2,1.2c-5.1,0.4-10.1,0.9-15.3,1.1c0.5,0.1,1,0.3,1.5,0.3c-2.6,0-5.3,0.1-8,0.1c-0.3,0-0.5,0.1-0.9,0.1
				c2,0.4,4.1,0.8,6.1,1.3c1.4,0.1,2.8,0.1,4.2,0.1c5.9-0.5,11.7-0.9,17.4-1.2c2.8-0.1,5.7-0.3,8.5-0.4c2.8-0.1,5.7-0.2,8.4-0.4
				c5.7-0.3,11.3-0.5,16.9-0.9c2.8-0.1,5.7-0.3,8.5-0.5c2.8-0.2,5.7-0.5,8.6-0.7c6.2-0.5,12-0.8,17.8-1.1c1.4-0.1,2.9-0.1,4.3-0.1
				c1.4-0.1,2.8-0.2,4.3-0.3c2.9-0.2,5.8-0.4,8.8-0.6c3-0.5,5.2-0.2,5,0.6c-0.2,0.8-2.9,1.9-5.8,2.4c-2.4,0.5-4.9,1.1-7.3,1.7
				c-1.2,0.3-2.4,0.5-3.7,0.8c-1.2,0.3-2.5,0.5-3.7,0.7c-5,0.9-10,1.9-15.1,2.7c-10.1,1.8-20.3,3-30.3,4.1c-10,1.1-19.7,1.6-29,1.7
				c-2.3,0.1-4.6,0.1-6.8,0.1c-2.2,0-4.5,0-6.6-0.1c-4.3-0.2-8.5-0.5-12.4-0.9c-3.5,0.3-7,0.6-10.3,0.7c-1.7,0.1-3.2,0.1-4.9,0
				c-1.6-0.1-3-0.2-4.5-0.3c-0.1,0-0.2,0-0.3,0c1.6,0.4,3,0.8,4.5,1.2c-5.3,0.1-8.2-0.9-13.1-1.1c0.6,0.7,1.4,1.4,2,2
				c-6.5,0.3-13.2,0.7-19.9,1.1c-6.7,0.3-13.4,0.7-20,1c-3.3,0.1-6.6,0.3-9.9,0.4c-3.2,0.1-6.5,0.1-9.7,0.1
				c-6.4,0-12.7-0.1-18.7-0.6c-0.9,0-1.9,0-2.8-0.1c-5.1,1-10.3,2-15.6,2.9c-5.4,0.9-11,1.6-17.2,1.9c2.1,0.1,4.1,0.1,6.1,0.1
				c2,0,4.1,0,6.1,0.1c-2.2,0.3-4.4,0.7-6.6,0.9c-2.2,0.3-4.5,0.5-6.7,0.7c-4.5,0.4-9,0.7-13.8,0.9c-3.2,0.1-6.5,0.1-9.7,0.1
				c-3.2,0-6.5-0.1-9.8-0.2c-6.5-0.3-13-0.7-19-1.3c-12.1-1.4-22.6-3.4-29.4-6.1c-49.4,1.6-98.5,2.1-147.3,3.6
				c-2.5,0.1-4.8-0.3-5.2-1c-0.3-0.6,1.4-1.3,3.9-1.4c35-2.3,70.5-3.5,106.3-4.9c-29.9-0.8-59.9-1.9-90.3-2
				c-3.8,0.1-7.8,0.2-11.7,0.3c-3.8,0.1-7.7-0.1-11.5-0.3c-38.8,0.1-75.6-0.1-114.9,2.2c-33.6,2-62.8,4.4-95.9,8
				c-46.4,5.2-88.2,11.2-133.2,16.8c-5.9,0.9-11.6,0.5-12.6-1.1c-0.9-1.6,3.2-3.6,9.2-4.6c46.8-8.6,94-14.9,142.1-19.2
				c48.1-4.4,97.3-6.5,148.1-6.5c10.9,0,21.8,0.1,32.5,0.1c-0.1-0.2-0.3-0.5-0.3-0.7c0-0.9,1-1.8,2.7-2.4
				c-12.2-0.1-24.5-0.5-36.9-0.9c-34.3,2.2-68.5,4.5-104.9,4.7c-6.3,0-12.4,0-18.3-0.1c-3-0.1-5.9-0.1-8.9-0.2
				c-1.5-0.1-3-0.1-4.4-0.1c-1.5,0-2.9-0.1-4.4-0.1c-5.8-0.1-11.6-0.3-17.4-0.5c-2.9-0.1-5.7-0.2-8.6-0.3c-2.9-0.1-5.7-0.1-8.6-0.1
				l-10.9,1.1c-3.6,0.3-7.3,0.7-10.9,1.1c-7.2,0.8-14.4,1.7-21.7,2.5c-3.6,0.4-7.2,0.9-10.9,1.4c-3.6,0.5-7.2,0.9-10.9,1.4
				c-3.6,0.5-7.2,0.9-10.9,1.4c-3.6,0.5-7.2,1-10.9,1.6c-1.1,0.3-2.4,0.2-2.8-0.1c-0.5-0.3,0.1-0.7,1.3-0.9c4.9-1,9.9-2.1,15-3
				c5.1-0.9,10.1-1.8,15.3-2.7c10.2-1.8,20.5-3.2,31-4.7c-3.4-0.8-5.5-2-5.3-3.4c0.1-1.6,2.6-3.1,6.5-4.3l-14.3,0.9
				c-3,0.1-5.3-0.3-5.3-1c0-0.8,2.3-1.6,5.1-1.8c19.4-1.4,38.9-2.6,58.3-3.4c5.8-0.5,11.7-0.9,17.5-1.5c5.8-0.5,11.7-0.8,17.5-1.3
				c5.8-0.4,11.7-0.8,17.6-1.1c5.9-0.3,11.7-0.7,17.6-0.9c-3.3-0.9-5.7-2.1-6.9-3.4l0,0c-3.6,0.1-7.3,0.3-10.9,0.4
				c-33.2,3.2-66.5,6.4-100.1,9.9c-16.8,1.7-33.6,3.6-50.4,5.4c-8.4,1-16.9,2-25.3,2.9c-8.4,1.1-16.9,2.1-25.3,3
				c-1.4,0.2-2.4,0.1-2.5-0.3c-0.1-0.3,0.9-0.7,2.1-0.9c5.1-0.6,10.2-1.2,15.3-1.8s10.2-1.4,15.3-1.8c5.1-0.6,10.2-1.1,15.3-1.8
				l7.6-0.9c2.6-0.3,5.1-0.5,7.6-0.8c-0.1,0-0.1,0-0.1,0c-0.8-0.1-1-0.5-0.1-0.8c0.7-0.3,2.4-0.5,3.2-0.3c0.9,0.1,0.9,0.5,0.1,0.8
				c37.9-4.1,75.7-7.9,113.2-11.5c-34.8,1.8-69.6,4.1-104.3,6.4c-3.7,0.7-7.4,1.6-11.3,2.4c-1,0.2-2.4,0.1-2.9-0.2
				c-0.3-0.3,0.4-0.7,1.5-0.9c1.1-0.2,2.1-0.4,3.2-0.6c-3.3,0.2-6.2,0.1-8.4-0.3c-2.2-0.4-3.4-1.1-3.5-2c0.2-1.9,5.7-3.8,12.6-4.4
				c9.1-1,18.3-2,27.4-2.8c4.6-0.4,9.1-0.7,13.7-1.1c2.3-0.2,4.6-0.4,6.8-0.5l6.9-0.5l5.9-0.7c2-0.4,3.9-0.8,5.9-1.2
				c-28.5,0.9-57,2.4-85.3,4.3c-2.4,0.3-4.5,0-4.7-0.7c-0.1-0.6,1.8-1.4,4.2-1.7c3.1-0.5,6.2-1,9.3-1.5c3.1-0.4,6.2-0.9,9.3-1.3
				c6.2-0.9,12.4-1.8,18.7-2.6c6.3-0.7,12.5-1.5,18.8-2.2c3.1-0.3,6.3-0.7,9.4-1.1c3.2-0.3,6.3-0.6,9.5-0.9
				c6.3-0.6,12.6-1.2,18.9-1.8c6.3-0.5,12.6-1,19-1.5c3.2-0.3,6.3-0.5,9.5-0.7c3.2-0.2,6.3-0.4,9.5-0.6c6.3-0.4,12.7-0.8,19-1.1
				c16.6-3.3,33.3-6.5,50.3-9.7c-2.2,0-4.3,0-6.5,0.1c-13.8,0.2-27.1,1.1-40.2,2.3c-6.5,0.6-13,1.3-19.3,2s-12.7,1.5-19,2.4
				c-6.3,0.9-12.6,1.7-18.9,2.6c-6.3,0.9-12.6,1.8-19,2.7c-12.8,1.7-25.7,3.5-39,4.9c-1.4,0.2-2.5,0-2.7-0.3s0.7-0.7,2.1-0.8
				c6.5-0.7,12.9-1.6,19.2-2.5c6.3-0.9,12.5-1.8,18.7-2.7c6.2-0.9,12.4-1.8,18.7-2.8c6.3-0.8,12.6-1.7,19-2.4
				c21.5-2.6,41.9-4.7,61.8-7.4c-40.9,1.8-80,6.9-120.4,11.4c-1.8,0.3-3.6,0.3-4.7,0c-0.1,0.2-0.4,0.4-0.9,0.5
				c-5,1.3-10.5,2.3-16.1,3.3c-1.1,0.3-2.4,0.2-3-0.1C97.5,379.1,98.1,378.7,99.3,378.4z M809.6,388.1c0.4,0.1,0.7,0.1,1.1,0.2
				c-1.1-0.1-2.4-0.1-3.6-0.1c0,0,0,0-5.3-2c0,0,1,0.2,2.5,0.6c0.7,0.2,1.6,0.4,2.6,0.6C807.6,387.7,808.6,387.9,809.6,388.1z
				 M870.2,368.2C870.2,368.2,870.2,368.2,870.2,368.2c1.8,0.5,3.1,0.9,3.1,0.9C872,368.8,871,368.5,870.2,368.2z M472.4,420.4
				c21.5-0.1,42.7,0.3,64,1.7c-5.2,0.2-10.4,0.4-15.6,0.7c-8.1-0.3-16.1-0.6-24.2-1c-4.1-0.2-8.1-0.4-12.2-0.6
				C480.5,420.8,476.4,420.6,472.4,420.4z M853.2,391.3c-5.9-0.3-10.6-1.3-15.1-2.2c-1.8,0.5-3.7,0.9-5.7,1.2
				c-2,0.3-3.9,0.7-5.9,0.9c-5.3,0.7-10.6,1.4-15.8,2c-1.3,0.1-2.6,0.3-3.9,0.4c-1.3,0.1-2.6,0.2-3.8,0.3c-2.6,0.2-5.1,0.4-7.7,0.7
				c1.4,0.7-1,0.9-2.2,1.2c-1.3,0.3-2.6,0.5-3.8,0.7c5.5-0.3,11-0.7,16.5-1.1c5.5-0.4,11.1-0.9,16.7-1.4c5.1-0.4,10.3-0.9,15.5-1.4
				C843.2,392.1,848.3,391.5,853.2,391.3z M928,371.9c0.3,0.1,0.6,0.1,1,0.1c0,0,0,0-1.7,1.8C927.3,373.9,927.7,373.1,928,371.9z
				 M930.7,368.8c-0.5,0.1-1,0.1-1.6,0.2C929.5,368.4,930,368.5,930.7,368.8z M916.1,370.7c0.9,0.2,1.5,0.3,2.2,0.3
				C916.1,370.7,916.1,370.7,916.1,370.7z M897.2,333.3l-3.8,8l4.3-7.8L897.2,333.3z"/>
		</g>
	</g>
</g>
<g opacity="0.5">
	<path fill="#FEE6E6" d="M0,498.3c148.1,13,298.5,9.7,448.1,10.3c184.4,0.7,368.7,7.4,551.9,19.9"/>
	<g>
		<path fill="#FEE9E9" d="M36.4,453.3c0.9,0.3,1.8,0.6,2.8,0.9c-1.8,0.3-4.5,0.1-7.6-0.3c7.3,2,15.3,3.4,23.4,4.4
			c1,0.1,2,0.3,3.1,0.3c1,0.1,2.1,0.2,3.1,0.3c2.1,0.1,4.2,0.3,6.3,0.3c4.2,0.2,8.4,0.3,12.6,0.3c8.4,0,16.6-0.3,24.4-1
			c2-0.1,3.8-0.3,5.7-0.5s3.7-0.4,5.5-0.7c3.6-0.5,7-1.1,10.2-1.7c9.1,0.5,17.4-0.9,18.3-3.2c0.9-2.3-5.7-4.5-14.9-5.1
			c-2-0.3-4.4-0.6-5.8-1c-3.2-1-6.7-1.9-10.3-2.8c-3.6-0.9-7.3-1.8-11.2-2.7c-7.8-1.7-16.1-3.2-24.8-4.5c3.4,0.8,6.8,1.7,10.2,2.6
			c-5.1-0.8-10-1.7-15.7-2c0.5,0.5,1.3,0.9,1.9,1.4c-4.3-1-9-1.8-13.9-2.2c-4.9-0.6-9.8-1-14.7-1.1c-9.7-0.3-18.7,0.4-24.8,2.2
			c-12.4,3.5-8.7,9.8,8.5,14.2L36.4,453.3z"/>
		<path fill="#FEE9E9" d="M68.3,468.8c-10.5-2-20.5-4.5-30.5-6.8l-2-0.9l0.4,3.6l0.2-0.2c4.9-1.1,11.2-1.7,18.1-2
			c3.4-0.1,7.1-0.3,10.7-0.3c3.6-0.1,7.4-0.1,11-0.1l5.2-0.3c2.5-0.3,4.2-0.9,4.7-1.7c1.3-1.6-3.1-3.4-9.8-4.1l-7.7-0.7
			c-9.4-1.4-21.3-3-32.4-3.2c-11.1-0.3-21.1,0.4-26.6,3c-2.5,1.2-0.5,3.1-0.2,4.8c-0.9,2.3,6,4.9,15.4,5.7
			c9.5,0.9,17.6-0.3,18.4-2.6c1.6,0.3,3.2,0.5,4.8,0.9c-1.3,0.2-2.6,0.3-3.8,0.5c1.4-0.9,4.3-1.4,7.6-1.6c1.6-0.1,3.4-0.2,5.2-0.3
			c1.8-0.1,3.5-0.3,5.1-0.5l9.7-0.1l-5.1-5.7l-5,0.5c0.3,0.3,1.1,0.6,1,0.7c-4.8,0.5-9.4,0.9-14.2,1.2c-4.7,0.3-9.6,0.6-14.8,0.7
			l-13.2,1c-3.6,0.7-3.4,2.4,0.4,3.6l5.7,1.6c-0.9-0.3-1.7-0.6-2.6-0.9c6.6,1.1,13.4,2.1,20.3,3.1c6.8,1,13.6,2.1,20.3,3
			c2.1,0.3,4.7,0.3,5.8-0.2C71.3,469.9,70.4,469.2,68.3,468.8z"/>
		<g>
			<path fill="#FEE9E9" d="M21,466.3c-2.2-0.6-4.2-1.1-7.3-1.3c-0.7,0.2-1.1,0.3-1.4,0.3c1.1,0.3,2.6,0.8,4.2,1.3
				C19.5,467.5,21.1,467.1,21,466.3z"/>
			<path fill="#FEE9E9" d="M12.4,465.3c-1-0.3-1.8-0.5-1.8-0.5c0.4,0.2,0.7,0.4,1.1,0.6c0.3,0,0.3,0,0.3,0S12.2,465.4,12.4,465.3z"
				/>
			<path fill="#FEE9E9" d="M605.3,466.9c21.1,1.1,42.3,2.2,63.6,3.2c10.6,0.5,21.2,0.9,31.9,1.5l15.9,0.7l8,0.3
				c2.6,0.1,5.3,0.3,8,0.4c1.4,0.1,2.6-0.1,2.7-0.5c0.1-0.3-1-0.7-2.3-0.7c-2.6-0.1-5.3-0.3-8-0.5l-8-0.3
				c-5.3-0.2-10.6-0.5-15.9-0.7c-10.6-0.5-21.2-1-31.8-1.5c-21.2-1-42.3-2.1-63.5-3.2c-1.4-0.1-2.6,0.1-2.8,0.5
				C602.9,466.5,603.9,466.8,605.3,466.9z"/>
			<path fill="#FEE9E9" d="M920.3,513.5c-1,0.2-1,0.5,0,0.9c0.9,0.3,2.5,0.4,3.5,0.2c0.9-0.2,0.9-0.6,0-0.9
				C922.8,513.5,921.1,513.4,920.3,513.5z"/>
			<path fill="#FEE9E9" d="M909.7,539.6c-5.9,0.1-11.5,0.3-16.6,1c-0.9,0.1-2,0-2.8-0.2c0.3,0.5-0.8,1-3,1.1
				c-5.3,0.3-10.5,0.5-15.9,0.6c-5.3,0.2-10.7,0.3-16.1,0.5c-10.9,0.4-21.8,0.6-32.9,0.8c-22.1,0.3-44.4,0.4-66.6,0.7
				c-0.3,0.4-0.9,0.8-1.9,1.2c-3.1,1.2-9.3,1.7-15.7,1.1l-4.8-0.5c-9.7-0.9-19.4-1.4-29.1-2.1c-9.7-0.6-19.4-1.3-29-2
				c-4,0.5-8.6,0.8-13.6,0.8c-16.8,1.2-33.6,2.4-50.8,3.1c1.1,0.4,1.7,0.9,1.7,1.4c-0.3,1.1-4.3,2-9,1.8c-2.4-0.1-4.7-0.1-7-0.1
				c6.7,0.5,13.4,0.9,20.1,1.5c0.9,0.1,1.9,0.1,2.6,0.3c7.4,0.3,14.8,0.5,22.3,0.5c16.5,0.2,32.7,0.2,48.8,0
				c16.1-0.1,31.9-0.7,47.7-0.8c31.5-0.5,62.5-1.6,93.4-2.8c1-0.1,2.6-0.1,3.5,0.3c0.6,0.3,0.5,0.7-0.7,0.8
				c-19.5,2.1-37.8,4.7-56.7,7.1c-9.4,1.1-19,2.3-29,3.2c-5,0.5-10.1,0.9-15.3,1.3s-10.5,0.6-16,1c-26.1,1.6-52.1,3-78.2,4.2
				c-13,0.6-26.1,1.1-39.3,1.6c-3.3,0.1-6.6,0.3-9.9,0.3c-1.6,0.1-3.3,0.1-4.9,0.2c-1.6,0.1-3.3,0.1-5,0.3c-6.6,0.3-13.3,0.6-20,0.9
				c-27.9-0.3-54.8,0.1-81.8,0.7c-6.8,0.2-13.5,0.3-20.3,0.5c-3.4,0.1-6.8,0.2-10.2,0.3c-3.4,0.1-6.8,0.3-10.3,0.4
				c-13.8,0.5-27.7,1.1-41.9,1.6c-77.2,2.9-150.8,3.8-228,2.2c-14.4,0.1-28.3-1.4-39-3.7c-10.7-2.3-18.1-5.5-19.8-9
				c-2-4.3,4.7-8,16.6-10.4c-2.4-0.1-4.7-0.2-7-0.3c0,0-2.8-0.3-5.5-0.6c-1.4-0.1-2.8-0.3-3.8-0.4c-1-0.1-1.8-0.2-1.8-0.2
				c-10.5-1.4-19.4-3.6-25-6.2l-7.6-3.3c-5-3-11.6-5.9-18-8.8c-3.2-1.4-6.3-3-9.1-4.5c-2.8-1.6-5.3-3.1-7.4-4.7l2-2l-2-0.8
				c-6.5-2.1-10.7-4.5-12.1-6.8l0.8-2.6c1.6-2.9,5.1-5.5,10.5-7.8c-0.1-1.1,0.6-2.2,2-3.1c-4.3-3-6.1-6-2.4-8.9
				c-2.6-1-2.1-2.1,1.1-2.5c1.1-0.1,2.4-0.2,3.8-0.1l0,0c-1.4-0.8-1.8-1-3.8-2c-2.6-0.4-4.1-0.7-4.1-0.7c-7-1-7-1-13.1-1.9
				c-5.2-1.4-8.3-2.8-8.3-2.8c-5.4-5.1-5.4-5.1-4.3-7.1c0.3-0.2,0.7-0.3,1.1-0.5c-4.6-1-4.9-1.1-6.1-1.4c-1.3-0.5-2.2-0.9-2.2-0.9
				c-0.1-1.1-0.1-1.1-0.9-1.6c-0.2-0.5-0.1-0.8-0.1-0.8c2.7-1,2.7-1,2.8-1.4c0.6-0.3,1.5-0.5,1.5-0.5c3-0.1,4.3-0.2,4.8-0.2
				c6.2,3.3,6.3,3.3,6.3,3.3c1.5-0.9,1.5-0.9,1.5-0.9c1.4,1.4,1.4,1.4,1.4,1.4c-0.7-1.3-0.7-1.3-0.7-1.3c3.2,0.9,3.2,0.9,3.2,0.9
				c-3.6-1.4-3.6-1.4-3.6-1.4c7.7,1,7.7,1,10.8,1.2c3.2,0.4,6,0.3,6.3,0.3c-0.3-0.4-0.3-0.7-0.3-0.7c8.2,1.1,8.2,1.1,16.3,2.2
				c0.7,0.3,1.3,0.6,1.8,0.9c0.8-0.3,2.4-0.3,3.9-0.1c1.4,0.1,2.8,0.3,4.3,0.4c0.3-0.1,0.6-0.1,0.9-0.1c0-0.1,0-0.1,0-0.1
				c1.5-0.1,2.5-0.3,3.6-0.4c0.7-0.1,0.7-0.1,0.7-0.1s0,0,0.1,0c2.5-0.3,6.1-0.6,15.7-1.6c2.5,0.3,4.9,0.6,7,0.9
				c-0.7-0.2-1.4-0.4-2-0.7c-1.3-0.5-0.1-1.4-0.7-1.6c-8.8-1.6-18-2.8-27.4-4c-2.4-0.3-4.7-0.6-7-0.9c-2.4-0.3-4.7-0.7-7.1-0.9
				c-4.7-0.7-9.5-1.3-14.2-2c-3.4-0.1-6.5-1-7-1.9c-0.4-0.9,2.1-1.5,5.6-1.4c4.9-0.3,9.8-0.6,14.9-0.7c2.5-0.1,5.1-0.1,7.6-0.1
				c2.6,0,5.1,0,7.8-0.1c10.5-0.1,21.3,0.1,32,0.7c5.4,0.3,10.8,0.7,16.1,1.1c1.4,0.1,2.7,0.2,4.1,0.3c1.4,0.1,2.7,0.2,4.1,0.3
				c2.7,0.2,5.3,0.4,8,0.7c10.6,0.9,21,2.2,30.9,3.6c2.6,0.2,5.2,0.4,7.8,0.7l3.9,0.3l3.9,0.3c5.3,0.3,10.5,0.7,15.9,0.9
				c-0.5-0.2-1-0.4-1.5-0.5c2.8,0.3,5.5,0.6,8.2,0.9c0.3,0,0.6,0.1,0.9,0.1c-2.1-0.7-4.1-1.4-6.2-2c-1.4-0.2-2.8-0.4-4.3-0.6
				c-6.1-0.3-12.2-0.7-18-1.3c-5.9-0.6-11.7-1.3-17.4-2c-11.5-1.5-22.9-3-34.6-4.4c-12.6-1.6-23.3-4.1-35.2-6
				c-3-0.3-5.1-1.1-4.7-1.8c0.4-0.7,3.3-1.1,6.3-0.9c9.9,0.2,20.2,0.5,30.5,1.1c10.3,0.4,20.8,0.9,30.9,1.8
				c5.1,0.4,10.1,0.9,15.1,1.4c2.4,0.3,4.9,0.5,7.3,0.8c2.4,0.3,4.8,0.6,7.2,0.9c9.4,1.1,18.3,2.6,26.3,4.4
				c7.4,0.2,14.4,0.8,20.3,2.1c0.1,0,0.2,0,0.3,0c-1.6-0.6-3-1.1-4.5-1.7c5.5,0.5,8.4,1.9,13.4,2.5c-0.5-0.7-1.3-1.5-1.8-2.2
				c13.6,0.8,27.7,1.1,41.6,1.6c3.4,0.1,7,0.3,10.3,0.4c3.4,0.1,6.8,0.3,10.2,0.5c6.8,0.4,13.3,0.9,19.6,1.8c1,0.1,2,0.1,2.9,0.2
				c10.9-1.6,21.8-3,34.8-3.2c-4.4-0.2-8.6-0.5-13-0.7c9.4-0.9,18.7-1.6,28.8-1.5c27.1,0.1,57.8,3.6,72.2,9.3l9.9-0.1l4.9-0.1h5
				h19.9c13.2,0,26.5-0.1,39.8-0.1c13.2-0.1,26.5-0.1,39.8-0.2c6.6-0.1,13.2-0.1,19.9-0.2l9.9-0.1l4.9-0.1h4.9
				c2.7,0,5.2,0.5,5.7,1.1c0.3,0.7-1.6,1.2-4.3,1.2c-2.4,0.1-4.7,0.1-7.1,0.2c-2.4,0.1-4.7,0.2-7.2,0.3c-4.7,0.2-9.5,0.3-14.3,0.5
				c-9.5,0.3-19.1,0.6-28.7,0.9c-19.2,0.5-38.4,0.8-57.7,1.1c32.2,1.5,64.6,3,97.5,3.6c4.2,0,8.4-0.1,12.7-0.1
				c4.2,0,8.3,0.3,12.5,0.7c42.1,1.2,82.1,2.7,125.1,2.3c36.7,0.2,68.9,0.1,105.5-0.3c6.4-0.1,12.8-0.1,19.1-0.2
				c6.3-0.1,12.6-0.2,18.8-0.1c12.4,0.1,24.7,0.2,36.9,0.4c24.5,0.4,48.9,1.1,74.3,2.7c6.8,0.2,12.9,1.8,13.6,3.5
				c0.7,1.7-4.3,2.9-11.1,2.7c-26.5-0.3-52.9-0.5-79.3-0.9c-13.2-0.1-26.4-0.3-39.6-0.5c-13.2,0-26.5-0.1-39.7-0.1
				c-26.5-0.1-53.2-0.4-80.1-1.1c-6.8-0.2-13.5-0.3-20.3-0.5c-6.8-0.1-13.6-0.2-20.4-0.3c-13.6-0.3-27.3-0.7-41.1-1.1
				c-12-0.4-23.6-0.9-35.3-1.3c0.1,0.2,0.3,0.5,0.3,0.7c0,0.9-1.1,1.7-3,2.4c13.2,0.6,26.6,1.4,40,2.2c18.6-0.4,37.3-0.9,56.2-0.9
				c4.7-0.1,9.5,0.1,14.2,0.2c4.8,0.1,9.6,0.3,14.4,0.4c9.7,0.3,19.4,0.9,29.4,1.6c27.2,1.9,51.8,4.9,76.9,7.8c4,0.1,8,0.1,12,0.2
				l12,0.3c8,0.2,16,0.4,24,0.6c16,0.4,32.1,0.8,48.2,1.4c1.3-0.1,2.6,0.2,3,0.5c0.5,0.3-0.3,0.6-1.6,0.7
				c-22.3,0.7-45.1,0.9-68.1,0.9c3.6,1.3,5.6,2.7,5.3,4.2c-0.3,1.5-3.2,2.7-7.6,3.4l15.5,1.1c3.2,0.3,5.7,1,5.5,1.8
				c-0.1,0.8-2.7,1.2-5.7,1c-10.6-0.7-21.1-1.4-31.7-2.1c-5.3-0.4-10.5-0.6-15.9-0.9l-15.9-0.8c-25.4-0.3-50.7-0.7-76.2-1.2
				c3.5,1.1,6,2.5,7.2,4l0,0c3.9,0.1,7.8,0.3,11.7,0.4c18-0.3,36.1-0.4,54.3-0.4c9.1,0,18.2,0,27.3,0.1c2.3,0,4.6,0.1,6.8,0.1
				c2.3,0.1,4.6,0.1,6.8,0.2c4.6,0.1,9.1,0.3,13.7,0.4c36.7,1.2,73.5,3,110.5,5.7c1.4,0.1,2.6,0.4,2.6,0.8c0,0.3-1.1,0.6-2.4,0.5
				c-22.3-1.6-44.6-2.9-66.8-4c0.1,0,0.1,0,0.1,0c0.9,0.3,1,0.7,0,0.9c-0.9,0.2-2.6,0.1-3.5-0.2c-1-0.3-0.9-0.7-0.1-0.9
				c-20.7-0.9-41.4-1.7-61.9-2.2c-2.6-0.1-5.1-0.1-7.7-0.1s-5.1,0-7.7-0.1c-5.1,0-10.3,0-15.4-0.1c-10.3,0-20.5,0.1-30.6,0.1
				c18.8,0.7,37.7,1.4,56.6,2.2c18.8,1.1,37.7,2.4,56.4,3.8c4.1-0.2,8.2-0.3,12.4-0.5c1.1,0,2.6,0.3,3,0.6c0.3,0.3-0.5,0.6-1.8,0.6
				c-1.1,0.1-2.3,0.1-3.4,0.1c7.1,0.5,12.5,2.4,12.3,4.1c-0.5,1.8-6.7,2.9-14.1,2.4c-19.8-0.8-39.6-1.8-59.3-3c-2.2,0-4.3-0.1-6.4,0
				c-2.2,0.2-4.3,0.4-6.5,0.6c7.7,0.5,15.3,1.1,23,1.8s15.3,1.4,22.9,2c15.3,1.4,30.5,2.8,45.6,4.1c2.6,0.1,4.8,0.8,4.8,1.4
				c0,0.6-2.1,1.1-4.7,0.9c-26.9-0.3-53.9-0.9-81-1.6c-13.6-0.2-27.1-0.4-40.8-0.6c-13.6-0.2-27.2-0.5-40.9-0.8
				c-18,2-36.1,4-54.4,5.9c2.3,0.1,4.6,0.3,7,0.4c29.6,1.3,57.1,0.5,84.3-0.5c13.6-0.5,27.2-1,40.9-1.4c13.8-0.2,27.7-0.1,42,0.3
				c1.4,0,2.6,0.3,2.8,0.7c0.1,0.3-0.9,0.6-2.3,0.5c-14-0.3-27.4-0.1-40.9,0.1c-13.4,0.4-26.8,1-40.7,1.4c-23.1,0.5-45,1.1-66.4,2.2
				c21.9,0.6,43.3,0.5,64.7,0.3c10.7-0.1,21.4-0.2,32.1-0.3c2.7,0,5.3,0,8-0.1c2.7,0,5.4,0.1,8,0.1c5.4,0.1,10.8,0.2,16.2,0.3
				c1.9-0.1,3.8,0.2,5,0.7c0.1-0.2,0.5-0.3,1.1-0.4c5.5-0.5,11.4-0.8,17.4-1c1.1-0.1,2.6,0.1,3.2,0.5
				C911.7,539.2,911,539.5,909.7,539.6z M149.2,485c-0.4-0.1-0.7-0.3-1.1-0.4c1.1,0.3,2.4,0.5,3.8,0.8c0,0,0,0,5.3,2.8
				C157.1,488.1,153.1,486.6,149.2,485z M82.1,491.9L82.1,491.9c-1.7-0.9-3-1.6-3-1.6C80.4,490.9,81.3,491.5,82.1,491.9z
				 M510.3,474.6c-11.5-0.1-23.1-0.5-34.6-0.9c-5.7-0.3-11.5-0.5-17.2-0.9c-5.7-0.3-11.4-0.8-17.2-1.1c5.6-0.1,11.1-0.2,16.7-0.3
				C475.5,472.2,492.9,473.4,510.3,474.6z M104.9,473.5c3,0.8,5.6,1.8,8,2.6c2.4,0.9,4.7,1.8,6.9,2.8c4-0.2,8.1-0.1,12.3,0.1
				c11.2,0.5,22.2,1.3,33,2.1c-1.4-0.9,1.2-0.7,2.5-0.8c1.4-0.1,2.7-0.1,4.1-0.1c-2.9-0.2-5.7-0.5-8.6-0.7s-5.7-0.5-8.6-0.8
				c-5.8-0.5-11.6-1.1-17.4-1.7c-5.3-0.5-10.8-0.9-16.2-1.5c-2.7-0.3-5.4-0.5-8.1-0.8C110,474.2,107.4,473.9,104.9,473.5z
				 M24.8,472.1c-0.3-0.1-0.6-0.3-0.9-0.4c0,0,0,0,2.2-1.2C26.1,470.5,25.5,471.2,24.8,472.1z M21.3,474.2c0.5,0.1,1.1,0.2,1.6,0.3
				C22.2,475.1,21.7,474.8,21.3,474.2z M36.1,477.1c-0.9-0.4-1.4-0.7-2.1-0.9C36.1,477.1,36.1,477.1,36.1,477.1z M44.1,518.4
				l6.4-6.4l-7,6.1L44.1,518.4z"/>
		</g>
	</g>
</g>
<g opacity="0.5">
	<path fill="#FEE6E6" d="M912.4,614.1c-45.3,5.5-91,9.9-136.9,13c-222.9,15.1-450.6,0.3-670.6,26.9"/>
	<g>
		<path fill="#FEE9E9" d="M891.1,664.5c-0.8-0.1-1.6-0.3-2.4-0.4c1.5-0.6,3.7-0.9,6.3-0.9c-3.2-0.3-6.5-0.5-9.8-0.6
			c-3.4-0.1-6.8-0.1-10.3,0.1c-7,0.3-14,1.1-20.9,2.2c-1.8,0.3-3.4,0.6-5.1,0.9c-1.7,0.3-3.4,0.6-5.1,0.9c-3.4,0.7-6.6,1.4-9.8,2.2
			c-6.3,1.6-12.2,3.4-17.4,5.3c-7.6,0.5-14.3,2.6-14.9,4.9c-0.5,2.4,5.3,4,13,3.6c1.7,0.1,3.7,0.1,5,0.4c5.7,1.3,11.9,2.2,18.6,2.9
			c3.4,0.3,6.8,0.6,10.4,0.9c3.6,0.2,7.2,0.3,11,0.4c-2.9-0.3-6-0.7-8.9-1.1c4.3,0.1,8.6,0.3,13.4-0.2c-0.5-0.3-1.2-0.7-1.8-1.1
			c7.6,0.7,16.3,0.4,24.5-0.9c8.1-1.4,15.6-3.6,20.4-6.3c9.7-5.5,5.3-11.1-9.7-12.5L891.1,664.5z"/>
		<path fill="#FEE9E9" d="M862.3,654.1c4.5,0.3,8.8,0.7,13.2,1c2.2,0.2,4.3,0.4,6.5,0.5c2.2,0.2,4.3,0.3,6.4,0.5l1.8,0.6l-0.9-3.4
			l-0.1,0.3c-1.9,0.9-4.1,1.8-6.5,2.7c-2.4,0.8-5.1,1.6-8,2.2c-5.7,1.4-11.9,2.5-17.8,3.5l-4.3,0.9c-2,0.7-3.3,1.5-3.6,2.3
			c-0.8,1.8,3,3,8.7,2.7l6.5-0.3c4,0.1,8.5,0,13.2-0.3c2.4-0.1,4.7-0.3,7.1-0.6c2.4-0.3,4.7-0.6,7-1c9.2-1.6,17.4-4,21.4-7.4
			c1.8-1.6-0.1-3.2-0.7-4.7c0.3-2.4-5.8-3.8-13.6-3c-7.8,0.7-14.3,3.2-14.7,5.7c-1.4,0-2.7-0.1-4.1-0.1c1-0.4,2-0.7,3-1.1
			c-2,2.3-9.1,3.4-14.3,5.1l-7.9,1.4l5.1,5l4.1-1.1c-0.3-0.2-1-0.5-0.9-0.5c3.8-1.1,7.6-2.3,11.5-3.4c3.8-1.1,7.8-2.2,12.1-3.1
			l10.6-3.2c2.8-1.4,2.4-2.9-0.9-3.4L897,651c0.7,0.1,1.5,0.3,2.2,0.5c-5.6,0-11.3,0.2-17.1,0.3c-5.7,0.1-11.5,0.1-17,0.1
			c-1.8-0.1-3.8,0.3-4.7,1C859.8,653.5,860.6,654.1,862.3,654.1z"/>
		<g>
			<path fill="#FEE9E9" d="M901.4,649.2c1.8,0.2,3.6,0.5,6.1,0.1c0.6-0.3,0.9-0.5,1-0.5c-0.9-0.1-2.3-0.3-3.6-0.5
				C902.4,647.8,901.1,648.4,901.4,649.2z"/>
			<path fill="#FEE9E9" d="M908.6,648.6c0.9,0.1,1.5,0.2,1.5,0.2c-0.3-0.1-0.7-0.3-1-0.4c-0.3,0.1-0.3,0.1-0.3,0.1
				S908.8,648.6,908.6,648.6z"/>
			<path fill="#FEE9E9" d="M425.1,680.5c-8.5-0.1-16.9-0.3-25.5-0.4c-8.5-0.1-16.9-0.1-25.5-0.1c-17-0.1-33.9,0.1-50.8,0.3
				c-1.1,0-2.1,0.3-2.1,0.6c-0.1,0.3,0.9,0.6,1.9,0.5c16.9-0.2,33.8-0.4,50.8-0.3c8.4,0.1,16.9,0.1,25.4,0.1l25.5,0.4
				c1.1,0,2.1-0.3,2.2-0.6C427,680.7,426.2,680.5,425.1,680.5z"/>
			<path fill="#FEE9E9" d="M170.4,657.6c0.8-0.3,0.7-0.7-0.1-0.9c-0.7-0.1-2-0.1-2.8,0.3c-0.7,0.3-0.6,0.7,0.1,0.9
				C168.5,658,169.8,657.9,170.4,657.6z"/>
			<path fill="#FEE9E9" d="M175.5,630.4c2.4-0.5,4.7-0.9,6.9-1.4c2.2-0.5,4.3-1.1,6.3-1.7c0.7-0.2,1.6-0.2,2.2-0.1
				c-0.3-0.5,0.5-1.1,2.3-1.4c16.9-3.4,34.6-6.4,52.5-8.6c9-1.1,18-2.3,27.1-3.2c9-0.9,18.1-1.9,27.1-2.8c0.2-0.5,0.7-0.9,1.5-1.4
				c2.4-1.5,7.5-2.4,12.7-2.3l3.9,0.2c8,0.1,15.9,0.3,23.8,0.4c4,0.1,7.9,0.1,11.9,0.2c4,0.1,7.9,0.2,11.9,0.3c3.2-0.7,7-1.2,11-1.4
				c6.8-1,13.6-2,20.5-2.9c6.9-0.9,13.8-1.7,20.7-2.4c-0.9-0.3-1.4-0.8-1.4-1.3c0.3-1.2,3.4-2.1,7.2-2.1c1.9-0.1,3.8-0.1,5.7-0.1
				c-5.5-0.2-10.9-0.4-16.4-0.7c-0.8,0-1.5-0.1-2.2-0.1c-6,0.1-12,0.1-18.2,0.4c-53.8,2-104.6,8-154.7,16.1c-0.8,0.2-2.1,0.3-2.8,0
				c-0.5-0.3-0.5-0.7,0.5-0.9c7.8-1.9,15.5-3.9,23-5.9c3.8-1,7.5-2,11.3-3c3.8-0.9,7.6-1.9,11.3-2.9c7.6-1.9,15.4-3.7,23.5-5.4
				c2-0.4,4.1-0.8,6.1-1.2c2.1-0.4,4.2-0.7,6.3-1.1c4.3-0.7,8.6-1.4,13.1-2c5.3-0.7,10.7-1.5,16-2.2l8-1.1l8-0.9
				c10.6-1.3,21.3-2.5,31.9-3.7c21.3-2.3,42.7-4.3,64.5-6.1c45.6-0.5,87.4-3.8,133.4-6.8c62-4.1,120-6.3,179.4-10.6
				c11.1-1.3,21.8-1.1,30.2,0.3c4.2,0.7,7.8,1.6,10.6,2.8c2.8,1.1,4.7,2.6,5.6,4.3c2,4.1-2.6,8.4-11.7,12c1.8-0.1,3.6-0.3,5.5-0.4
				l8.8,0.1c8.3,0.1,15.5,1.2,20.1,3.2l6.3,2.3c8.6,4.7,22.3,8,29.6,13l-1.3,2.3l1.6,0.5c5.4,1,9.1,2.6,10.6,4.7l-0.2,2.7
				c-0.7,3.1-3,6.3-7,9.4c0.3,1.1-0.1,2.2-1.1,3.4c3.9,2.3,5.9,4.9,3.4,8.4c2.2,0.5,2,1.7-0.5,2.7c-0.9,0.3-2,0.6-3,0.7l0,0
				c1.3,0.5,1.6,0.7,3.3,1.3c2.2,0,3.4,0,3.4,0c5.8-0.2,5.8-0.2,10.8-0.3c4.4,0.4,7.2,1.4,7.2,1.4c5.3,4.2,5.3,4.2,4.8,6.3
				c-0.3,0.2-0.5,0.5-0.9,0.7c3.9,0.3,4.2,0.3,5.2,0.3c1.1,0.3,1.9,0.5,1.9,0.5c0.3,1.1,0.3,1.1,1,1.4c0.3,0.4,0.3,0.8,0.3,0.8
				c-2,1.5-2,1.5-2,1.8c-0.5,0.4-1.1,0.7-1.1,0.7c-2.4,0.7-3.4,0.9-3.8,1c-5.7-2.2-5.7-2.2-5.7-2.2c-1.1,1.1-1.1,1.1-1.1,1.1
				c-1.4-1.1-1.4-1.1-1.4-1.1c0.9,1.1,0.9,1.1,0.9,1.1c-2.8-0.4-2.8-0.4-2.8-0.4c3.2,0.7,3.2,0.7,3.2,0.7c-6.5,0.3-6.5,0.3-9,0.6
				c-2.7,0.1-4.9,0.7-5.2,0.7c0.3,0.3,0.3,0.6,0.3,0.6c-3.4,0.1-5.2,0.2-6.9,0.3c-1.7,0.1-3.4,0.1-6.8,0.2c-0.7-0.2-1.1-0.4-1.6-0.6
				c-0.6,0.4-1.9,0.7-3.2,0.7c-1.2,0.1-2.4,0.1-3.5,0.1c-0.3,0.1-0.5,0.1-0.7,0.3c0,0.1,0,0.1,0,0.1c-1.1,0.3-2,0.6-2.9,0.9
				c-0.6,0.2-0.6,0.2-0.6,0.2s0,0-0.1,0c-2,0.6-4.9,1.4-12.6,3.7c-2.1,0.1-4.1,0.1-5.9,0c0.6,0.1,1.2,0.3,1.8,0.4
				c1.1,0.3,0.2,1.4,0.8,1.5c7.4,0.4,15.2,0.4,23.1,0.3c3.9-0.1,7.9-0.2,11.9-0.3c4-0.1,8-0.3,12-0.5c2.8-0.5,5.5-0.1,6.1,0.7
				c0.5,0.8-1.5,1.8-4.3,2.3c-3.9,1.1-8,2.2-12.1,3.2c-4.2,0.9-8.4,1.8-12.8,2.6c-4.3,0.7-8.7,1.5-13.2,2c-4.5,0.6-8.9,1.1-13.4,1.5
				c-9,0.7-18.1,1.2-26.9,1.4c-8.9,0.1-17.6-0.2-26-0.7c-4.4,0.1-8.7,0.1-13.1,0.2c-4.4,0-8.8,0.1-13.2,0.1c0.4,0.1,0.9,0.3,1.3,0.5
				c-2.3-0.1-4.6-0.3-6.8-0.4c-0.3,0-0.5,0-0.7,0c1.8,0.5,3.5,1.1,5.3,1.6c1.2,0.1,2.4,0.3,3.6,0.3c2.6-0.1,5.1-0.1,7.6-0.1
				s5,0.1,7.4,0.1c4.9,0.1,9.8,0.2,14.7,0.4c4.9,0.2,9.7,0.4,14.5,0.6c4.9,0.2,9.7,0.3,14.7,0.3c5.3,0.1,10.3,0.3,15.2,0.7
				c2.4,0.1,4.9,0.3,7.4,0.5s4.9,0.3,7.5,0.3c2.6-0.1,4.5,0.3,4.2,1.1c-0.2,0.7-2.6,1.6-5.1,1.7c-4.1,0.6-8.4,1.1-12.7,1.6
				c-4.3,0.5-8.6,0.9-13,1.3c-4.3,0.3-8.7,0.7-13,0.9c-4.3,0.3-8.7,0.3-13,0.5c-8.6,0.1-16.9,0.1-24.9-0.4
				c-7.9-0.5-15.4-1.4-22.2-2.6c-6.1,0.3-12,0.1-16.9-0.7c-0.1,0-0.2,0-0.3,0c1.3,0.5,2.5,0.9,3.8,1.4c-2.3-0.1-4.1-0.4-5.8-0.7
				c-1.7-0.3-3.4-0.7-5.5-0.9c0.5,0.7,1.1,1.4,1.6,2.1c-11.3-0.2-23,0.2-34.4,0.3c-5.7,0.1-11.4-0.1-16.9-0.3
				c-5.5-0.2-10.9-0.6-16.1-1.2c-0.8,0-1.6-0.1-2.4-0.1c-4.5,0.9-8.9,1.8-13.6,2.6c-4.7,0.7-9.5,1.2-14.8,1.5
				c3.6,0.1,7.1,0.3,10.7,0.5c-7.6,1.1-15.2,2-23.4,2c-5.5,0.1-11.3,0-16.9-0.3c-5.6-0.3-11.1-0.9-16.4-1.6
				c-10.5-1.4-19.6-3.5-25.5-6.3c-42.7,1.3-85.4,2.2-127.8,4.2c-2.2,0.1-4.1-0.3-4.5-0.9c-0.2-0.6,1.2-1.3,3.4-1.4
				c15.2-1.4,30.5-2.4,45.9-3.2c15.4-0.9,30.9-1.6,46.4-2.3c-13-0.4-26-0.8-39-1.1c-13.1-0.3-26.2-0.5-39.4-0.4
				c-3.4,0.1-6.8,0.3-10.2,0.4c-3.4,0.1-6.7,0-10-0.2c-8.4,0.1-16.8,0.2-25.1,0.3c-8.3,0.1-16.5,0.3-24.8,0.5
				c-8.2,0.3-16.5,0.5-24.8,0.9c-8.3,0.5-16.7,0.9-25.3,1.6c-14.7,1.1-28.3,2.4-41.9,3.8c-13.6,1.3-27.2,3-41.6,4.7
				c-2.5,0.3-5.1,0.6-7.6,0.9c-2.5,0.3-5,0.6-7.5,0.9c-4.9,0.7-9.9,1.4-14.7,2c-4.9,0.7-9.7,1.4-14.5,2c-2.4,0.3-4.8,0.6-7.2,0.9
				c-2.4,0.3-4.8,0.7-7.2,1c-9.5,1.4-19.1,2.7-28.7,3.8c-2.4,0.3-4.9,0.5-7.2,0.9c-2.4,0.3-4.8,0.6-7.2,0.9
				c-4.9,0.6-9.7,1.2-14.7,1.8c-5.3,0.7-10.3,0.1-11.1-1.5c-0.8-1.6,2.8-3.5,8.1-4.3c5.1-0.9,10.3-1.8,15.4-2.6s10.3-1.8,15.4-2.6
				c10.3-1.6,20.7-3.1,30.9-4.7l3.8-0.6l3.9-0.5l7.8-1c5.2-0.7,10.4-1.4,15.6-2c5.2-0.7,10.4-1.4,15.6-2c5.3-0.5,10.5-1.1,15.7-1.7
				c5.3-0.5,10.5-1.1,15.8-1.6c2.6-0.3,5.3-0.5,7.9-0.7c2.6-0.2,5.3-0.4,8-0.7c10.6-0.8,21.3-1.6,32-2.3c21.5-1.2,43.2-2.2,65.4-2.4
				c9.6-0.1,19-0.3,28.3-0.3c-0.1-0.2-0.3-0.5-0.3-0.7c0-0.9,0.9-1.8,2.4-2.5c-10.7-0.1-21.3-0.2-32.1-0.5
				c-7.4,0.6-14.9,1.2-22.4,1.9c-7.5,0.7-15,1.3-22.6,1.8c-3.8,0.3-7.6,0.5-11.4,0.7c-3.8,0.2-7.6,0.4-11.5,0.6
				c-7.7,0.4-15.5,0.6-23.4,0.7c-2.7,0-5.4,0-8.1,0c-2.6,0-5.3-0.1-7.9-0.1c-5.2,0-10.4-0.1-15.5-0.3c-5.1-0.1-10.1-0.3-15.2-0.5
				c-2.5-0.1-5.1-0.2-7.6-0.3c-2.5-0.1-5-0.1-7.6-0.1c-6.3,0.7-12.7,1.4-19,2.2l-9.5,1.1l-4.7,0.5l-4.7,0.6
				c-12.6,1.7-25.3,3.3-38,4.9c-1,0.2-2.1,0.2-2.5-0.1c-0.4-0.3,0.1-0.7,1.1-0.9c1.1-0.3,2.2-0.5,3.2-0.7c1.1-0.2,2.2-0.4,3.3-0.7
				c2.2-0.4,4.4-0.9,6.6-1.3c4.4-0.9,8.8-1.7,13.3-2.5c8.9-1.6,17.9-3.2,27-4.5c-3-0.8-4.8-2-4.7-3.5c0.1-1.6,2.2-3,5.6-4.3
				l-12.5,0.8c-2.6,0.2-4.7-0.3-4.6-1c0-0.8,2-1.6,4.5-1.8c8.5-0.6,17-1.1,25.5-1.6c8.5-0.5,16.9-1.1,25.5-1.5
				c10.2-0.9,20.3-1.9,30.5-2.8c10.2-0.8,20.4-1.6,30.6-2.2c-2.9-0.9-5-2-6.1-3.4l0,0c-3.2,0.1-6.3,0.3-9.5,0.5
				c-57.7,6.7-116.4,13.1-175.6,19.3c-1.1,0.1-2.2-0.1-2.2-0.4c-0.1-0.3,0.8-0.7,1.8-0.8c8.9-0.9,17.9-1.8,26.7-2.8
				c4.5-0.5,8.9-1,13.4-1.5c4.5-0.5,8.9-0.9,13.4-1.4h-0.1c-0.7-0.1-0.9-0.5-0.1-0.8c0.7-0.3,2.1-0.4,2.8-0.3
				c0.9,0.1,0.8,0.5,0.1,0.8c8.3-0.9,16.5-1.8,24.8-2.8c8.2-0.8,16.5-1.7,24.7-2.6c16.4-2,32.8-3.6,49.1-5.5l-22.8,1.4l-11.4,0.7
				l-11.3,0.8c-7.6,0.5-15.1,1-22.8,1.5l-5.7,0.3c-1.9,0.1-3.8,0.3-5.7,0.4l-11.3,0.8c-3.2,0.7-6.5,1.4-9.8,2.2
				c-0.9,0.1-2.1,0.1-2.5-0.2c-0.3-0.3,0.3-0.7,1.3-0.8c0.9-0.2,1.8-0.4,2.8-0.5c-5.7,0.3-10.3-0.7-10.4-2.5
				c0.1-1.9,4.9-3.7,10.9-4.2c8-0.9,15.9-1.8,23.9-2.5c8-0.7,15.9-1.3,23.9-1.9l5.1-0.7c1.8-0.4,3.4-0.8,5.1-1.2
				c-12.4,0.5-24.8,0.9-37.3,1.5c-12.4,0.7-24.8,1.3-37.1,1.9c-2.1,0.2-4-0.1-4.1-0.7c-0.1-0.6,1.6-1.4,3.6-1.6
				c43.1-6.8,87.1-11.3,131.3-14.5c7.2-1.7,14.4-3.4,21.7-5.1c3.6-0.8,7.3-1.7,10.9-2.6c3.6-0.8,7.4-1.6,11-2.4
				c-1.9,0-3.8,0-5.7,0.1c-1.5,0.1-3,0.1-4.5,0.1c-1.5,0.1-3,0.1-4.5,0.3c-3,0.2-5.9,0.4-8.8,0.6c-5.8,0.5-11.5,1-17.2,1.6
				c-11.3,1.1-22.3,2.8-33.4,4.5c-5.5,0.9-10.9,1.7-16.5,2.6l-4.1,0.6c-1.4,0.2-2.8,0.5-4.1,0.7c-2.8,0.5-5.5,0.9-8.3,1.4
				c-5.5,0.9-11.1,1.7-16.7,2.5c-5.7,0.8-11.3,1.4-17.2,2.2c-1.1,0.2-2.2,0-2.4-0.3c-0.1-0.3,0.6-0.7,1.8-0.8
				c5.7-0.8,11.2-1.5,16.7-2.4c5.5-0.8,10.9-1.7,16.3-2.6c5.4-0.9,10.8-1.9,16.3-2.7c5.5-0.8,10.9-1.6,16.6-2.4
				c4.7-0.7,9.3-1.3,13.8-1.9c4.6-0.6,9-1.3,13.6-1.9c8.9-1.2,17.7-2.4,26.4-3.8c-8.9,0.5-17.7,1.3-26.5,2.1
				c-4.4,0.4-8.7,0.9-13.1,1.4c-4.3,0.5-8.7,1-13,1.6l-13,1.6l-6.5,0.8c-2.2,0.3-4.3,0.6-6.5,0.9c-8.7,1.1-17.4,2.3-26.2,3.2
				c-1.6,0.3-3.1,0.2-4.1-0.1c-0.1,0.2-0.3,0.4-0.8,0.5c-4.3,1.1-9.1,2.2-14,3.2c-0.9,0.2-2.1,0.2-2.6-0.1
				C173.9,631.1,174.5,630.8,175.5,630.4z M794.3,647.4c0.3,0.1,0.7,0.2,0.9,0.3c-0.9-0.1-2-0.3-3.2-0.4c0,0,0,0-4.5-2.3
				C787.5,645,790.9,646.2,794.3,647.4z M847.9,633.2L847.9,633.2c1.5,0.7,2.6,1.2,2.6,1.2C849.4,633.9,848.5,633.5,847.9,633.2z
				 M501.1,670.3c18.6-0.1,37.1,0.2,55.6,1.6c-4.5,0.2-9,0.4-13.5,0.6c-7-0.3-14-0.6-21-1C515.2,671.2,508.2,670.8,501.1,670.3z
				 M831.7,654.3c-5.1-0.9-9-2.2-12.8-3.6c-3.2,0.6-6.6,1-10.1,1.2c-9.3,0.5-18.3,0.8-27.2,1c1.2,0.8-0.9,0.9-2,1.1
				c-1.1,0.1-2.2,0.3-3.3,0.5c9.5,0,19,0,28.8,0.1c2.2,0,4.5,0,6.7,0c2.2-0.1,4.5-0.1,6.8-0.1C823.1,654.1,827.5,654.1,831.7,654.3z
				 M897.3,644.1c0.3,0.1,0.5,0.1,0.9,0.3c0,0,0,0-1.6,1.6C896.5,645.9,896.8,645.1,897.3,644.1z M899.8,641.4c-0.5,0-0.9,0-1.4-0.1
				C898.9,640.8,899.3,641,899.8,641.4z M887.2,641.1c0.7,0.3,1.2,0.5,1.8,0.5C887.2,641.1,887.2,641.1,887.2,641.1z M874.1,601.7
				l-4.1,7.4l4.5-7.1L874.1,601.7z"/>
		</g>
	</g>
</g>
</svg>
