<?xml version="1.0" encoding="utf-8"?>
<!-- Generator: Adobe Illustrator 17.1.0, SVG Export Plug-In . SVG Version: 6.00 Build 0)  -->
<!DOCTYPE svg PUBLIC "-//W3C//DTD SVG 1.1//EN" "http://www.w3.org/Graphics/SVG/1.1/DTD/svg11.dtd">
<svg version="1.1" id="Layer_1" xmlns="http://www.w3.org/2000/svg" xmlns:xlink="http://www.w3.org/1999/xlink" x="0px" y="0px"
	 viewBox="0 0 283.3 235.8" enable-background="new 0 0 283.3 235.8" xml:space="preserve">
<g opacity="0.8">
	<path fill="#FEE6E6" d="M61.2,233.8c-7.6,1.2-14.6,0.8-21.1-1.2c-6.4-2-12.2-5.1-17.1-9.4c-5-4.3-9.3-9.4-13-15.2
		c-3.7-5.9-6.7-12.1-9.1-18.8c-1.6-13.9-1.1-26.5,1.5-37.8c2.5-11.3,6.2-21.8,11-31.3c4.8-9.6,10.2-18.5,16.3-26.8
		c6.1-8.3,11.9-16.3,17.6-23.9c1.2,0.6,2.1,0.5,2.9-0.1c0.8-0.7,1.5-1.5,2.2-2.5c0.7-1,1.4-2,2.1-2.9c0.7-1,1.6-1.7,2.8-2.1
		c0.8-1.8,1.8-3.3,2.9-4.5c1.2-1.3,2.4-2.5,3.7-3.7c1.3-1.2,2.5-2.3,3.7-3.5s2.1-2.6,2.9-4.4c1.8-0.4,3.3-1.1,4.7-2.2
		c1.4-1.1,2.6-2.2,3.8-3.4s2.4-2.3,3.7-3.4c1.3-1.1,2.8-1.9,4.5-2.5v-3.8c3.9-2.1,6.7-4.4,8.5-6.9c1.8-2.4,3.9-5.5,6.4-9.2
		c1.9-0.4,3.5-0.5,4.7-0.4c1.2,0.1,2.8,0,5-0.4c1.8-3.3,3.3-5.9,4.7-7.6c1.4-1.8,3.4-3.7,6.2-5.9c2.5,1.6,5.4,2.6,8.5,3.1
		c3.1,0.5,5.8,2,7.9,4.5c0.2,2.5,0.8,4.5,1.9,5.9c1.1,1.4,2.3,2.6,3.7,3.7c1.4,1.1,2.6,2.2,3.8,3.5c1.2,1.3,1.9,3,2.3,5.1
		c0.8,0,1.3-0.2,1.6-0.6c0.3-0.4,0.8-0.5,1.6-0.3c0.4,1.8,0.8,3.1,1.2,4.1c0.4,1,0.8,1.9,1.2,2.8c0.4,0.9,0.8,1.8,1.3,2.6
		c0.5,0.9,0.9,2.1,1.3,3.7c-1,2.3-1.8,4.9-2.5,7.6c-0.7,2.7-2.1,4.6-4.2,5.6c0,1.6,0.5,2.4,1.6,2.6c1.1,0.2,1.7,1,1.9,2.3
		c0,2-0.3,3.5-0.9,4.7c5.1,9.6,9.6,19.6,13.6,30c4,10.5,8.5,20.4,13.6,29.7c-0.4,2.9-0.2,5.8,0.4,8.5c0.7,2.7,1.5,5.4,2.3,8.1
		s1.8,5.2,2.6,7.8c0.9,2.5,1.5,5.2,1.9,7.9c0.4,3.5,0.4,7.3,0.1,11.3c-0.3,4-1,7.9-2.1,11.6c-1.1,3.7-2.5,7.1-4.2,10.3
		c-1.8,3.1-3.8,5.5-6.2,7c-0.4-0.2-1.5,0.3-3.2,1.6c-1.8,1.3-3.8,2.9-6,4.8c-2.2,2-4.5,4.1-6.9,6.4s-4.4,4.4-6.2,6.2
		c-2.3,1.6-4.9,2.7-7.8,3.4c-2.8,0.7-5.7,1.4-8.6,2.2c-2.3,1.6-5.1,3.2-8.3,4.8c-3.2,1.7-6.5,3.1-10,4.2c-3.4,1.2-6.8,2.1-10.1,2.8
		c-3.3,0.7-6.3,0.8-8.8,0.4c-6.4,2.7-12.6,4.5-18.6,5.4C76.5,236.3,69.4,235.7,61.2,233.8z M67.7,123c-1.6,4.7-3.4,8.9-5.6,12.6
		c-2.2,3.7-4.2,7.5-6.3,11.4c-2.1,3.9-3.8,8.1-5.3,12.5s-2.3,9.5-2.5,15.4c3.1,3.3,6.9,5.4,11.3,6.2c4.4,0.8,8.9,0.9,13.5,0.3
		c4.6-0.6,9.1-1.4,13.6-2.3c4.5-1,8.6-1.6,12.3-1.8c0-1.8,0.7-2.5,2.1-2.3c6.4-0.8,12.5-3.2,18.3-7.2c5.8-4,11.8-8.1,18-12.2
		c0.8-2.5,1.8-4.7,3.1-6.4c1.3-1.8,1.9-4.3,1.9-7.6c-0.8-2.1-1.3-3.8-1.5-4.8c-0.2-1.1-0.3-2.9-0.3-5.4c-4.1-7.4-7.7-15.5-10.7-24.2
		c-3-8.7-6.5-16.7-10.4-24.2c-0.4,1-1.1,2-2.1,2.9c-1,1-2.1,0.8-3.2-0.6c-1,3.9-2.7,5.7-5.1,5.3c-2.4-0.4-4.7-1.6-6.9-3.5
		c-5.5,5.7-10.9,11.2-16.4,16.6c-5.5,5.4-10.4,11.6-14.6,18.6c-0.8,0.6-1.3,0.7-1.5,0.4C69.3,122.3,68.7,122.5,67.7,123z"/>
	<path fill="#FEE6E6" d="M254,16.7c2.1,4.3,4.9,7.8,8.3,10.4c3.4,2.6,6.8,5.3,10.1,8.1c4.1,7.6,6.6,16.1,7.6,25.5
		c1,9.4,2.1,19.6,3.2,30.8c0,9-0.6,17.4-1.8,25.3s-2.7,15.6-4.5,23.1c-1.9,7.5-4,15-6.3,22.4c-2.3,7.4-4.6,15.2-6.7,23.4
		c-2.7,2.9-4.8,7.1-6.3,12.5c-1.5,5.4-1.6,10.6-0.4,15.7c-2.5,3.1-5.1,6.2-7.6,9.1c-2.5,2.9-5.4,5.7-8.5,8.2
		c-1.2-1.2-2.7-1.8-4.5-1.9c-1.9-0.1-3.8-0.1-5.7,0c-2,0.1-3.8,0.3-5.4,0.6c-1.7,0.3-2.9,0.3-3.7,0.1c-1-1.6-2.3-3.2-4-5
		c-1.7-1.8-3.1-3.6-4.4-5.6c-1.3-2-2.2-3.9-2.9-5.7c-0.7-1.9-0.5-3.7,0.4-5.4c0-2.1-1.2-3.2-3.5-3.2c0.6-9,2.1-17.8,4.4-26.5
		c2.3-8.7,5-17.2,7.9-25.5c2.9-8.3,5.8-16.6,8.6-24.8c2.8-8.2,5-16.3,6.4-24.3c1.5-8,1.9-16,1.2-24c-0.7-8-3-16.1-6.9-24.3
		c0-2.7-0.1-5-0.1-6.9c-0.1-1.9-0.2-3.5-0.3-5c-0.1-1.5-0.2-2.9-0.4-4.2c-0.2-1.4-0.6-2.8-1.2-4.4c1-2.7,1.7-5.3,2.2-7.6
		c0.5-2.3,0.4-4.5-0.1-6.4c0.2-1.4,0.6-2.5,1.2-3.4s1.3-1.8,2.1-2.6c0.8-0.9,1.5-1.8,2.2-2.6c0.7-0.9,1.1-2,1.3-3.4h6.4
		c2.1,1.8,4,3.4,5.6,4.8C249.4,15.4,251.5,16.3,254,16.7z"/>
</g>
</svg>
