<?xml version="1.0" encoding="utf-8"?>
<!-- Generator: Adobe Illustrator 17.1.0, SVG Export Plug-In . SVG Version: 6.00 Build 0)  -->
<!DOCTYPE svg PUBLIC "-//W3C//DTD SVG 1.1//EN" "http://www.w3.org/Graphics/SVG/1.1/DTD/svg11.dtd">
<svg version="1.1" id="Layer_1" xmlns="http://www.w3.org/2000/svg" xmlns:xlink="http://www.w3.org/1999/xlink" x="0px" y="0px"
	 viewBox="0 226.5 987.3 555.3" enable-background="new 0 226.5 987.3 555.3" xml:space="preserve">
<g opacity="0.6">
	<path fill="#8FD0CC" d="M154.5,777c-17.9,2.8-34.4,1.9-49.7-2.8c-15.1-4.7-28.7-12-40.3-22.1C52.7,742,42.6,730,33.9,716.3
		c-8.7-13.9-15.8-28.5-21.4-44.3c-3.8-32.7-2.6-62.4,3.5-89c5.9-26.6,14.6-51.4,25.9-73.7c11.1-22.4,23.8-43.6,38.2-63.1
		c14.4-19.6,28-38.4,41.5-56.3c2.8,1.4,4.9,1.2,6.8-0.2c1.9-1.6,3.5-3.5,5.2-5.9s3.3-4.7,4.9-6.8c1.6-2.4,3.8-4,6.6-4.9
		c1.9-4.2,4.2-7.8,6.8-10.6c2.8-3.1,5.7-5.9,8.7-8.7c3.1-2.8,5.9-5.4,8.7-8.2c2.8-2.8,4.9-6.1,6.8-10.4c4.2-0.9,7.8-2.6,11.1-5.2
		s6.1-5.2,9-8c2.8-2.8,5.7-5.4,8.7-8c3.1-2.6,6.6-4.5,10.6-5.9v-9c9.2-4.9,15.8-10.4,20-16.3c4.2-5.7,9.2-13,15.1-21.7
		c4.5-0.9,8.2-1.2,11.1-0.9c2.8,0.2,6.6,0,11.8-0.9c4.2-7.8,7.8-13.9,11.1-17.9c3.3-4.2,8-8.7,14.6-13.9c5.9,3.8,12.7,6.1,20,7.3
		s13.7,4.7,18.6,10.6c0.5,5.9,1.9,10.6,4.5,13.9c2.6,3.3,5.4,6.1,8.7,8.7c3.3,2.6,6.1,5.2,9,8.2c2.8,3.1,4.5,7.1,5.4,12
		c1.9,0,3.1-0.5,3.8-1.4c0.7-0.9,1.9-1.2,3.8-0.7c0.9,4.2,1.9,7.3,2.8,9.7c0.9,2.4,1.9,4.5,2.8,6.6s1.9,4.2,3.1,6.1
		c1.2,2.1,2.1,4.9,3.1,8.7c-2.4,5.4-4.2,11.5-5.9,17.9c-1.6,6.4-4.9,10.8-9.9,13.2c0,3.8,1.2,5.7,3.8,6.1c2.6,0.5,4,2.4,4.5,5.4
		c0,4.7-0.7,8.2-2.1,11.1c12,22.6,22.6,46.2,32,70.7c9.4,24.7,20,48.1,32,70c-0.9,6.8-0.5,13.7,0.9,20c1.6,6.4,3.5,12.7,5.4,19.1
		c1.9,6.4,4.2,12.2,6.1,18.4c2.1,5.9,3.5,12.2,4.5,18.6c0.9,8.2,0.9,17.2,0.2,26.6c-0.7,9.4-2.4,18.6-4.9,27.3
		c-2.6,8.7-5.9,16.7-9.9,24.3c-4.2,7.3-9,13-14.6,16.5c-0.9-0.5-3.5,0.7-7.5,3.8c-4.2,3.1-9,6.8-14.1,11.3
		c-5.2,4.7-10.6,9.7-16.3,15.1c-5.7,5.4-10.4,10.4-14.6,14.6c-5.4,3.8-11.5,6.4-18.4,8c-6.6,1.6-13.4,3.3-20.3,5.2
		c-5.4,3.8-12,7.5-19.6,11.3c-7.5,4-15.3,7.3-23.6,9.9c-8,2.8-16,4.9-23.8,6.6c-7.8,1.6-14.8,1.9-20.7,0.9
		c-15.1,6.4-29.7,10.6-43.8,12.7C190.6,782.9,173.9,781.7,154.5,777z M169.8,516.3c-3.8,11.1-8,21-13.2,29.7s-9.9,17.7-14.8,26.9
		c-4.9,9.2-9,19.1-12.5,29.4s-5.4,22.4-5.9,36.3c7.3,7.8,16.3,12.7,26.6,14.6c10.4,1.9,21,2.1,31.8,0.7c10.8-1.4,21.4-3.3,32-5.4
		c10.6-2.4,20.3-3.8,29-4.2c0-4.2,1.6-5.9,4.9-5.4c15.1-1.9,29.4-7.5,43.1-17s27.8-19.1,42.4-28.7c1.9-5.9,4.2-11.1,7.3-15.1
		c3.1-4.2,4.5-10.1,4.5-17.9c-1.9-4.9-3.1-9-3.5-11.3c-0.5-2.6-0.7-6.8-0.7-12.7c-9.7-17.4-18.1-36.5-25.2-57s-15.3-39.3-24.5-57
		c-0.9,2.4-2.6,4.7-4.9,6.8c-2.4,2.4-4.9,1.9-7.5-1.4c-2.4,9.2-6.4,13.4-12,12.5c-5.7-0.9-11.1-3.8-16.3-8.2
		c-13,13.4-25.7,26.4-38.6,39.1c-13,12.7-24.5,27.3-34.4,43.8c-1.9,1.4-3.1,1.6-3.5,0.9C173.4,514.4,172,514.8,169.8,516.3z"/>
	<path fill="#8FD0CC" d="M970.3,645.3c11.1,5.4,16.7,12.5,17,20.7s-2.4,16-7.5,23.1c-5.2,7.1-12.2,12.5-20.7,16.3
		s-16.3,3.5-23.1-0.7c-0.9,3.8-2.8,6.1-5.9,7.3s-4.9,3.3-5.9,6.6c-44.5,6.8-90.2,15.3-136.6,25.4c-46.4,10.1-93.1,17.7-139.5,22.9
		c-35.8-1.4-65.7-6.6-89.8-15.8c-9.7-8.2-17-18.6-21.7-31.1s-7.8-25.4-8.7-39.3s-0.5-27.3,1.4-40.3c1.9-13.2,4.7-24.5,8.2-34.2
		c24-30.4,49-59.4,74.9-87.4c25.9-27.8,55.6-52.5,88.6-74.2c9.7-12,21-22.1,33.9-30.6s24.5-18.1,35.1-28.7
		c-13.9-4.9-28.3-7.5-43.6-7.5s-30.2,1.2-44.8,3.8c-14.8,2.6-28.5,5.7-41.5,9.4s-24.3,6.4-33.9,8.2c-7.3-3.8-16-5.7-25.9-6.1
		s-19.6-2.4-29.4-5.4c-5.4-4.7-9.4-10.6-11.3-17.9c-2.1-7.3-3.3-14.8-3.8-22.9c-0.5-7.8-0.7-15.3-0.7-22.4s-0.9-13-2.8-17.7
		c3.8-5.9,7.1-12,9.9-17.9c3.1-5.9,6.6-11.5,10.6-16.5c21.7-5.9,45.5-10.8,71.8-14.8c26.1-4,52.8-5.7,79.4-5.2
		c26.6,0.5,52.5,3.8,77.3,9.9s46.9,16.5,66.2,30.6c2.4,13,7.1,23.1,14.6,30.6c7.3,7.5,16.3,13.4,26.9,17.7c4.9,9.2,9.4,18.6,13.2,28
		s6.1,19.6,7.5,29.9c-9.2,24.5-22.1,45-39.1,61.7c-16.7,16.7-33.7,32-50.6,45.9c-9.2,7.8-19.1,14.6-29.7,20s-19.8,12-27.6,19.3
		c-1.9,1.9-3.1,4.2-3.5,7.3s-1.6,5.2-3.5,6.6c-8.2,7.3-17.4,13.9-27.6,19.6c-10.1,5.7-19.3,12.2-27.6,19.6
		c-5.9,5.2-10.8,10.6-14.8,16.5s-9.2,11.3-15.5,15.8c8.2,2.8,16.5,4,24.5,3.5s16.3-1.4,24.7-2.8c8.5-1.4,17.2-2.8,26.1-4.2
		c9-1.4,18.4-1.9,28-1.4c13.4-4.7,28-8.7,44.3-12c16-3.5,32.3-4.7,48.3-3.8c13.9-5.4,27.1-9.7,39.6-12c12.7-2.6,24.7-3.1,36.3-1.6
		c5.9,2.4,10.4,6.4,13.4,12.5c3.1,5.9,7.8,10.1,14.1,12.5c-1.4,5.2-1.6,8.7-0.9,11.1C970.1,635.2,970.3,639.2,970.3,645.3z"/>
</g>
</svg>
