<?xml version="1.0" encoding="utf-8"?>
<!-- Generator: Adobe Illustrator 17.1.0, SVG Export Plug-In . SVG Version: 6.00 Build 0)  -->
<!DOCTYPE svg PUBLIC "-//W3C//DTD SVG 1.1//EN" "http://www.w3.org/Graphics/SVG/1.1/DTD/svg11.dtd">
<svg version="1.1" id="Layer_1" xmlns="http://www.w3.org/2000/svg" xmlns:xlink="http://www.w3.org/1999/xlink" x="0px" y="0px"
	 viewBox="65.5 218.6 864.6 563.1" enable-background="new 65.5 218.6 864.6 563.1" xml:space="preserve">
<g opacity="0.8">
	<path fill="#FEE6E6" d="M209.7,773.2c-17.9,2.8-34.4,1.9-49.7-2.8c-15.1-4.7-28.7-12-40.3-22.1c-11.8-10.1-21.9-22.1-30.6-35.8
		c-8.7-13.9-15.8-28.5-21.4-44.3c-3.8-32.7-2.6-62.4,3.5-89c5.9-26.6,14.6-51.4,25.9-73.7c11.3-22.6,24-43.6,38.4-63.1
		s28-38.4,41.5-56.3c2.8,1.4,4.9,1.2,6.8-0.2c1.9-1.6,3.5-3.5,5.2-5.9s3.3-4.7,4.9-6.8c1.6-2.4,3.8-4,6.6-4.9
		c1.9-4.2,4.2-7.8,6.8-10.6c2.8-3.1,5.7-5.9,8.7-8.7c3.1-2.8,5.9-5.4,8.7-8.2c2.8-2.8,4.9-6.1,6.8-10.4c4.2-0.9,7.8-2.6,11.1-5.2
		c3.3-2.6,6.1-5.2,9-8c2.8-2.8,5.7-5.4,8.7-8c3.1-2.6,6.6-4.5,10.6-5.9v-9c9.2-4.9,15.8-10.4,20-16.3c4.2-5.7,9.2-13,15.1-21.7
		c4.5-0.9,8.2-1.2,11.1-0.9c2.8,0.2,6.6,0,11.8-0.9c4.2-7.8,7.8-13.9,11.1-17.9c3.3-4.2,8-8.7,14.6-13.9c5.9,3.8,12.7,6.1,20,7.3
		c7.3,1.2,13.7,4.7,18.6,10.6c0.5,5.9,1.9,10.6,4.5,13.9c2.6,3.3,5.4,6.1,8.7,8.7c3.3,2.6,6.1,5.2,9,8.2c2.8,3.1,4.5,7.1,5.4,12
		c1.9,0,3.1-0.5,3.8-1.4c0.7-0.9,1.9-1.2,3.8-0.7c0.9,4.2,1.9,7.3,2.8,9.7c0.9,2.4,1.9,4.5,2.8,6.6c0.9,2.1,1.9,4.2,3.1,6.1
		c1.2,2.1,2.1,4.9,3.1,8.7c-2.4,5.4-4.2,11.5-5.9,17.9s-4.9,10.8-9.9,13.2c0,3.8,1.2,5.7,3.8,6.1c2.6,0.5,4,2.4,4.5,5.4
		c0,4.7-0.7,8.2-2.1,11.1c12,22.6,22.6,46.2,32,70.7c9.4,24.7,20,48.1,32,70c-0.9,6.8-0.5,13.7,0.9,20c1.6,6.4,3.5,12.7,5.4,19.1
		s4.2,12.2,6.1,18.4c2.1,5.9,3.5,12.2,4.5,18.6c0.9,8.2,0.9,17.2,0.2,26.6c-0.7,9.4-2.4,18.6-4.9,27.3c-2.6,8.7-5.9,16.7-9.9,24.3
		c-4.2,7.3-9,13-14.6,16.5c-0.9-0.5-3.5,0.7-7.5,3.8c-4.2,3.1-9,6.8-14.1,11.3c-5.2,4.7-10.6,9.7-16.3,15.1
		c-5.7,5.4-10.4,10.4-14.6,14.6c-5.4,3.8-11.5,6.4-18.4,8c-6.6,1.6-13.4,3.3-20.3,5.2c-5.4,3.8-12,7.5-19.6,11.3
		c-7.5,4-15.3,7.3-23.6,9.9c-8,2.8-16,4.9-23.8,6.6c-7.8,1.6-14.8,1.9-20.7,0.9c-15.1,6.4-29.7,10.6-43.8,12.7
		C245.5,779.1,229,777.9,209.7,773.2z M224.7,512.4c-3.8,11.1-8,21-13.2,29.7c-5.2,8.7-9.9,17.7-14.8,26.9s-9,19.1-12.5,29.4
		s-5.4,22.4-5.9,36.3c7.3,7.8,16.3,12.7,26.6,14.6c10.4,1.9,21,2.1,31.8,0.7c10.8-1.4,21.4-3.3,32-5.4c10.6-2.4,20.3-3.8,29-4.2
		c0-4.2,1.6-5.9,4.9-5.4c15.1-1.9,29.4-7.5,43.1-17c13.7-9.4,27.8-19.1,42.4-28.7c1.9-5.9,4.2-11.1,7.3-15.1
		c3.1-4.2,4.5-10.1,4.5-17.9c-1.9-4.9-3.1-9-3.5-11.3c-0.5-2.6-0.7-6.8-0.7-12.7c-9.7-17.4-18.1-36.5-25.2-57s-15.3-39.3-24.5-57
		c-0.9,2.4-2.6,4.7-4.9,6.8c-2.4,2.4-4.9,1.9-7.5-1.4c-2.4,9.2-6.4,13.4-12,12.5c-5.7-0.9-11.1-3.8-16.3-8.2
		c-13,13.4-25.7,26.4-38.6,39.1s-24.5,27.3-34.4,43.8c-1.9,1.4-3.1,1.6-3.5,0.9C228.5,510.5,227.1,511,224.7,512.4z"/>
	<path fill="#FEE6E6" d="M564.9,292.2c25.2-4.9,50.4-10.1,75.1-15.5c24.7-5.2,49.7-9.7,74.9-13.4c25-3.8,50.6-6.1,77-7.5
		c26.4-1.4,53.9-0.7,82.9,2.1c11.5,12,21.7,25,30.4,39.1c8.7,14.1,17,28.7,24.7,43.8c-0.9,3.3-1.4,6.4-1.6,9.7
		c-0.2,3.3-0.7,6.6-1.6,10.4c-2.4,5.9-5.4,11.3-9.4,16.3c-4,4.9-7.1,10.4-9.4,17c-11.5,6.4-22.4,13.4-32.7,20.7
		c-10.4,7.3-20.5,14.8-30.6,22.9c-8.2,3.8-17,7.1-25.9,9.9c-9,3.1-15.8,8.7-20.3,17c15.1,6.4,28.5,14.4,40,23.6s21.7,19.6,30.4,31.1
		c8.7,11.5,16.3,24,22.9,37.2c6.4,13.4,12.2,27.1,17.2,41.5c-0.9,6.8-2.1,14.1-3.5,21.4c-1.4,7.3-1.4,13.7,0,18.6
		c-3.3,9.7-7.5,17.4-12.7,23.1c-5.2,5.7-10.4,13.4-15.5,23.1c-16,6.8-29.2,16.5-39.3,29c-4.7,0-6.8-0.9-6.8-2.8
		c-14.4,9.7-30.9,17.9-49.7,24.5c-18.8,6.6-39.1,11.8-60.8,15.5c-21.7,3.8-44.5,5.7-68.3,6.1c-24,0.5-47.8-0.5-71.8-2.8
		c-1.9-1.4-3.5-3.1-4.9-4.9c-1.4-1.9-4.2-2.6-8.2-2.1c-1.9-4.7-4.2-8.7-7.3-12c-3.1-3.5-5.4-7.5-7.3-12c4.7-7.3,7.8-15.8,9.4-25.4
		c1.6-9.7,3.5-19.1,5.4-28c1.9-9,4.9-17,8.7-24.3c3.8-7.1,9.9-12.2,18.6-15.5c3.8-0.5,5.7,0.7,6.1,3.5c0.5,2.8,1.9,4.7,4.2,5.4
		c17.9,0,35.8-0.2,53.9-0.9c18.1-0.7,34.9-2.4,51.1-4.9c16-2.6,31.1-6.4,45.2-11.3s26.1-12.2,36.3-21.4
		c-13.9-11.1-29.9-19.3-48.3-25.2c-18.4-5.7-36.3-11.3-53.5-17c-17.2-5.7-32.5-12.5-45.9-21c-13.4-8.5-22.1-21-26.1-37.7
		c2.4-10.6,4-20,4.9-28.3s2.1-15.8,3.5-22.9s3.5-13.4,6.6-19.6c3.1-6.1,8-12.2,14.8-18.4c-2.4-1.4-5.7-1.6-9.9-0.9
		c-4.5,0.7-9.2,1.9-14.1,3.5c-5.2,1.6-9.9,3.5-14.8,5.4c-4.9,1.9-9,3.8-12,5.2c-9.7-2.4-19.6-3.8-29.4-4.5s-19.1-3.5-27.3-8.7
		c-0.9-4.9-2.1-10.6-3.5-17s-2.4-12.5-2.8-19.1c-0.5-6.4,0-13,1.4-19.3c1.4-6.4,4.7-12.5,9.7-17.9c-0.9-3.3-1.6-6.4-2.1-9.7
		s-1.4-5.9-2.8-8.2c4.9-4.2,10.4-8.2,16.3-12.5C561.4,301.8,564.4,297.3,564.9,292.2z"/>
</g>
</svg>
